<?xml version="1.0" encoding="utf-8"?>
<svg viewBox="1637.933 -784.236 1622.882 1513.045" xmlns="http://www.w3.org/2000/svg">
  <g>
    <path fill-rule="evenodd" clip-rule="evenodd" fill="url(#SVGID_1_)" d="M 1637.933 -784.236 L 1637.933 728.809 L 3260.815 728.809 L 3260.815 -784.236 L 1637.933 -784.236 Z" style=""/>
    <g transform="matrix(2.422256, 0, 0, 2.422256, 552.459229, -161.936447)" style="">
      <linearGradient id="SVGID_1_" gradientUnits="userSpaceOnUse" x1="120.0002" y1="-7.9937" x2="120.0002" y2="250.7279" gradientTransform="matrix(4.960205, -2.840095, 3.080802, 5.380598, 1564.138428, -328.871979)">
        <stop offset="0" style="stop-color: rgb(217, 11, 30);"/>
        <stop offset="1" style="stop-color: rgb(92, 3, 6);"/>
      </linearGradient>
    </g>
    <path d="M 2828.278 -512.565 C 2708.996 -525.867 2570.441 -474.419 2485.8 -372.503 C 2417.495 -290.257 2385.441 -185.395 2344.217 -86.985 C 2264.101 104.268 2170.152 237.469 2041.362 230.602 L 2041.362 413.201 C 2181.336 413.201 2300.932 353.599 2385.198 251.231 C 2438.817 185.77 2476.616 114.839 2508.648 34.755 L 2734.674 30.957 L 2734.674 -148.927 L 2578.972 -150.012 C 2636.076 -271.879 2699.447 -336.952 2828.278 -336.952 L 2828.278 -512.565 Z" style="fill: rgb(255, 255, 255);"/>
  </g>
</svg>